<svg xmlns="http://www.w3.org/2000/svg" viewBox="0 0 127.35 105.1"><defs><style>.a,.b{fill:#00a680;}.b{font-size:37px;font-family:SourceHanSansTW-Regular-B5pc-H, Source Han Sans TW;letter-spacing:0.04em;}</style></defs><title>Asset 3</title><path class="a" d="M119.82,5s-5.23,9.31-2,15.62C124.62,15.58,119.82,5,119.82,5Z"/><path class="a" d="M104.44,11.87s4.25,9.94,11.92,8.42C114.09,14.16,104.44,11.87,104.44,11.87Z"/><path class="a" d="M107.77,21.52S110.5,32,118.31,31.61C117,25.2,107.77,21.52,107.77,21.52Z"/><path class="a" d="M110.69,32.32S110.39,43.13,118,45C118.5,38.43,110.69,32.32,110.69,32.32Z"/><path class="a" d="M113.91,60.42c3-6.59-2.81-15.9-2.81-15.9S106.7,55.63,113.91,60.42Z"/><path class="a" d="M107,56.57s-6.49,10.91.26,17.16C111.52,67.31,107,56.57,107,56.57Z"/><path class="a" d="M101.1,69.09s-9.22,8.73-4.44,16.59C102.51,80.68,101.1,69.09,101.1,69.09Z"/><path class="a" d="M93.82,77.6S82.56,83.48,85,92.35C92,89.13,93.82,77.6,93.82,77.6Z"/><path class="a" d="M83.28,83.55s-12,3.11-11.54,12.06C79.05,94.07,83.28,83.55,83.28,83.55Z"/><path class="a" d="M120.16,34.11c7.79-3.26,5.63-14.71,5.63-14.71S118.52,27.23,120.16,34.11Z"/><path class="a" d="M119.74,47.7c8.17-2.14,7.6-13.79,7.6-13.79S119.07,40.67,119.74,47.7Z"/><path class="a" d="M115,62.5c9,.28,12-11.85,12-11.85S116.41,55.07,115,62.5Z"/><path class="a" d="M108.14,76.13c8.4,2.42,14.06-8.24,14.06-8.24S111.25,69.52,108.14,76.13Z"/><path class="a" d="M96.79,87.91c7,5.22,16.07-2.77,16.07-2.77S102,82.81,96.79,87.91Z"/><path class="a" d="M84.1,94.53c4.68,7.41,16,3.21,16,3.21S90.84,91.67,84.1,94.53Z"/><path class="a" d="M70.81,97.08c2.13,8.47,14.21,8,14.21,8S78.1,96.44,70.81,97.08Z"/><path class="a" d="M76.17,96a47.26,47.26,0,0,0,14.45-4.78,46.65,46.65,0,0,0,12.07-9.33,55.26,55.26,0,0,0,8.6-12.57,72.77,72.77,0,0,0,8-29.13,60.44,60.44,0,0,0-1.15-15.12,50.83,50.83,0,0,0-4.38-12.87h0C116.33,5.15,107.61,0,107.61,0s-1.41,8.85,6,12.12a51.16,51.16,0,0,1,4.29,13,62.05,62.05,0,0,1,.93,15A72,72,0,0,1,110.56,69C106,77.85,99,85.64,90.14,90.33a48.28,48.28,0,0,1-14.1,5,58.8,58.8,0,0,1-12.21,1.11c-.62,0-1.24,0-1.86-.05a80,80,0,0,1-10.65-1.07,48.28,48.28,0,0,1-14.1-5C28.37,85.64,21.41,77.85,16.81,69A72,72,0,0,1,8.56,40.19a62,62,0,0,1,.91-15,51.19,51.19,0,0,1,4.3-13c7.39-3.27,6-12.12,6-12.12S11,5.15,13.55,12.23l0,0A51.57,51.57,0,0,0,9.19,25.09,61,61,0,0,0,8.05,40.22a72.42,72.42,0,0,0,8,29.12,55.34,55.34,0,0,0,8.62,12.57,46.64,46.64,0,0,0,12.06,9.34A47.81,47.81,0,0,0,51.19,96a87.68,87.68,0,0,0,12.75,1A77.93,77.93,0,0,0,76.17,96Z"/><path class="a" d="M9.55,20.59C12.76,14.28,7.54,5,7.54,5S2.74,15.58,9.55,20.59Z"/><path class="a" d="M11,20.29c7.68,1.52,11.93-8.42,11.93-8.42S13.27,14.16,11,20.29Z"/><path class="a" d="M9,31.61C16.87,32,19.6,21.52,19.6,21.52S10.4,25.2,9,31.61Z"/><path class="a" d="M16.67,32.32S8.84,38.43,9.34,45C17,43.13,16.67,32.32,16.67,32.32Z"/><path class="a" d="M16.26,44.52s-5.81,9.31-2.83,15.9C20.65,55.63,16.26,44.52,16.26,44.52Z"/><path class="a" d="M20.35,56.57s-4.52,10.74-.26,17.16C26.83,67.48,20.35,56.57,20.35,56.57Z"/><path class="a" d="M30.7,85.68c4.78-7.86-4.45-16.59-4.45-16.59S24.86,80.68,30.7,85.68Z"/><path class="a" d="M42.32,92.35c2.47-8.87-8.78-14.75-8.78-14.75S35.33,89.13,42.32,92.35Z"/><path class="a" d="M55.61,95.61c.41-9-11.52-12.06-11.52-12.06S48.3,94.07,55.61,95.61Z"/><path class="a" d="M7.19,34.11C8.83,27.23,1.56,19.4,1.56,19.4S-.6,30.85,7.19,34.11Z"/><path class="a" d="M7.62,47.7C8.3,40.67,0,33.91,0,33.91S-.55,45.56,7.62,47.7Z"/><path class="a" d="M12.38,62.5C11,55.07.38,50.65.38,50.65S3.35,62.78,12.38,62.5Z"/><path class="a" d="M19.23,76.13c-3.11-6.61-14.08-8.24-14.08-8.24S10.82,78.55,19.23,76.13Z"/><path class="a" d="M14.49,85.14s9.06,8,16.08,2.77C25.31,82.81,14.49,85.14,14.49,85.14Z"/><path class="a" d="M27.25,97.74s11.32,4.2,16-3.21C36.53,91.67,27.25,97.74,27.25,97.74Z"/><path class="a" d="M42.34,105.09s12.08.46,14.2-8C49.26,96.44,42.34,105.09,42.34,105.09Z"/><text class="b" transform="translate(23.32 53.31)">63年</text></svg>