<?xml version="1.0" encoding="utf-8"?>
<!-- Generator: Adobe Illustrator 23.0.3, SVG Export Plug-In . SVG Version: 6.00 Build 0)  -->
<svg version="1.1" id="Layer_1" xmlns="http://www.w3.org/2000/svg" xmlns:xlink="http://www.w3.org/1999/xlink" x="0px" y="0px"
	 viewBox="0 0 127.3 105.1" style="enable-background:new 0 0 127.3 105.1;" xml:space="preserve">
<style type="text/css">
	.st0{fill:#00A680;}
	.st1{enable-background:new    ;}
</style>
<title>Asset 3</title>
<path class="st0" d="M119.8,5c0,0-5.2,9.3-2,15.6C124.6,15.6,119.8,5,119.8,5z"/>
<path class="st0" d="M104.4,11.9c0,0,4.2,9.9,11.9,8.4C114.1,14.2,104.4,11.9,104.4,11.9z"/>
<path class="st0" d="M107.8,21.5c0,0,2.7,10.5,10.5,10.1C117,25.2,107.8,21.5,107.8,21.5z"/>
<path class="st0" d="M110.7,32.3c0,0-0.3,10.8,7.3,12.7C118.5,38.4,110.7,32.3,110.7,32.3z"/>
<path class="st0" d="M113.9,60.4c3-6.6-2.8-15.9-2.8-15.9S106.7,55.6,113.9,60.4z"/>
<path class="st0" d="M107,56.6c0,0-6.5,10.9,0.3,17.2C111.5,67.3,107,56.6,107,56.6z"/>
<path class="st0" d="M101.1,69.1c0,0-9.2,8.7-4.4,16.6C102.5,80.7,101.1,69.1,101.1,69.1z"/>
<path class="st0" d="M93.8,77.6c0,0-11.3,5.9-8.8,14.8C92,89.1,93.8,77.6,93.8,77.6z"/>
<path class="st0" d="M83.3,83.6c0,0-12,3.1-11.5,12.1C79.1,94.1,83.3,83.6,83.3,83.6z"/>
<path class="st0" d="M120.2,34.1c7.8-3.3,5.6-14.7,5.6-14.7S118.5,27.2,120.2,34.1z"/>
<path class="st0" d="M119.7,47.7c8.2-2.1,7.6-13.8,7.6-13.8S119.1,40.7,119.7,47.7z"/>
<path class="st0" d="M115,62.5c9,0.3,12-11.8,12-11.8S116.4,55.1,115,62.5z"/>
<path class="st0" d="M108.1,76.1c8.4,2.4,14.1-8.2,14.1-8.2S111.2,69.5,108.1,76.1z"/>
<path class="st0" d="M96.8,87.9c7,5.2,16.1-2.8,16.1-2.8S102,82.8,96.8,87.9z"/>
<path class="st0" d="M84.1,94.5c4.7,7.4,16,3.2,16,3.2S90.8,91.7,84.1,94.5z"/>
<path class="st0" d="M70.8,97.1c2.1,8.5,14.2,8,14.2,8S78.1,96.4,70.8,97.1z"/>
<path class="st0" d="M76.2,96c5-0.8,9.9-2.4,14.4-4.8c4.5-2.4,8.6-5.6,12.1-9.3c3.4-3.8,6.3-8,8.6-12.6c4.7-9,7.4-19,8-29.1
	c0.3-5.1-0.1-10.1-1.2-15.1c-0.9-4.5-2.4-8.8-4.4-12.9l0,0c2.6-7.1-6.1-12.2-6.1-12.2s-1.4,8.9,6,12.1c2,4.1,3.4,8.5,4.3,13
	c0.9,4.9,1.2,10,0.9,15c-0.7,10.1-3.5,19.9-8.3,28.9C106,77.8,99,85.6,90.1,90.3c-4.4,2.4-9.2,4.1-14.1,5c-4,0.8-8.1,1.2-12.2,1.1
	c-0.6,0-1.2,0-1.9-0.1c-3.6-0.1-7.1-0.5-10.7-1.1c-4.9-0.9-9.7-2.6-14.1-5C28.4,85.6,21.4,77.8,16.8,69c-4.7-8.9-7.6-18.7-8.2-28.8
	c-0.3-5,0-10.1,0.9-15c0.8-4.5,2.3-8.9,4.3-13c7.4-3.3,6-12.1,6-12.1S11,5.2,13.6,12.2l0,0c-2,4.1-3.5,8.4-4.4,12.9
	c-1,5-1.4,10.1-1.1,15.1c0.6,10.2,3.3,20.1,8,29.1c2.3,4.6,5.2,8.8,8.6,12.6c3.5,3.8,7.6,6.9,12.1,9.3c4.5,2.3,9.4,3.9,14.5,4.8
	c4.2,0.6,8.5,1,12.8,1C68,97,72.1,96.7,76.2,96z"/>
<path class="st0" d="M9.6,20.6c3.2-6.3-2-15.6-2-15.6S2.7,15.6,9.6,20.6z"/>
<path class="st0" d="M11,20.3c7.7,1.5,11.9-8.4,11.9-8.4S13.3,14.2,11,20.3z"/>
<path class="st0" d="M9,31.6c7.9,0.4,10.6-10.1,10.6-10.1S10.4,25.2,9,31.6z"/>
<path class="st0" d="M16.7,32.3c0,0-7.8,6.1-7.3,12.7C17,43.1,16.7,32.3,16.7,32.3z"/>
<path class="st0" d="M16.3,44.5c0,0-5.8,9.3-2.8,15.9C20.6,55.6,16.3,44.5,16.3,44.5z"/>
<path class="st0" d="M20.4,56.6c0,0-4.5,10.7-0.3,17.2C26.8,67.5,20.4,56.6,20.4,56.6z"/>
<path class="st0" d="M30.7,85.7c4.8-7.9-4.5-16.6-4.5-16.6S24.9,80.7,30.7,85.7z"/>
<path class="st0" d="M42.3,92.3c2.5-8.9-8.8-14.8-8.8-14.8S35.3,89.1,42.3,92.3z"/>
<path class="st0" d="M55.6,95.6c0.4-9-11.5-12.1-11.5-12.1S48.3,94.1,55.6,95.6z"/>
<path class="st0" d="M7.2,34.1c1.6-6.9-5.6-14.7-5.6-14.7S-0.6,30.9,7.2,34.1z"/>
<path class="st0" d="M7.6,47.7C8.3,40.7,0,33.9,0,33.9S-0.6,45.6,7.6,47.7z"/>
<path class="st0" d="M12.4,62.5c-1.4-7.4-12-11.8-12-11.8S3.3,62.8,12.4,62.5z"/>
<path class="st0" d="M19.2,76.1c-3.1-6.6-14.1-8.2-14.1-8.2S10.8,78.6,19.2,76.1z"/>
<path class="st0" d="M14.5,85.1c0,0,9.1,8,16.1,2.8C25.3,82.8,14.5,85.1,14.5,85.1z"/>
<path class="st0" d="M27.2,97.7c0,0,11.3,4.2,16-3.2C36.5,91.7,27.2,97.7,27.2,97.7z"/>
<path class="st0" d="M42.3,105.1c0,0,12.1,0.5,14.2-8C49.3,96.4,42.3,105.1,42.3,105.1z"/>
<g class="st1">
	<path class="st0" d="M39.9,30.6c-1.1-1.3-2.7-2.1-4.4-2.1c-3.7,0-6.8,2.8-7,11.3c1.7-2,4-3.3,6.2-3.3c4.6,0,7.5,2.8,7.5,8.5
		c0,5.3-3.6,8.8-7.8,8.8c-5.2,0-9.1-4.5-9.1-13.4c0-10.6,4.8-14.7,10-14.7c2.8,0,4.8,1.2,6.3,2.8L39.9,30.6z M39,45
		c0-3.7-1.6-6-4.9-6c-1.7,0-3.8,1-5.6,3.5c0.4,5.6,2.4,8.7,5.8,8.7C37,51.2,39,48.7,39,45z"/>
	<path class="st0" d="M46.4,50.1l1.7-2.2c1.6,1.7,3.7,3.1,6.7,3.1c3.2,0,5.5-1.9,5.5-5c0-3.3-2.2-5.4-8.4-5.4v-2.6
		c5.6,0,7.5-2.3,7.5-5.2c0-2.6-1.8-4.3-4.6-4.4c-2.2,0.1-4.1,1.2-5.6,2.7l-1.8-2.1c2-1.9,4.4-3.3,7.6-3.3c4.6,0,7.9,2.4,7.9,6.8
		c0,3.3-2,5.5-4.8,6.5v0.1c3.2,0.7,5.8,3.2,5.8,6.9c0,4.8-3.9,7.7-8.7,7.7C50.8,53.8,48.2,52,46.4,50.1z"/>
	<path class="st0" d="M102.5,47.7H89.1v8.5h-2.8v-8.5H69.2V45h6.1v-9.9h11v-5.6h-9c-1.7,2.8-3.6,5.4-5.6,7.3
		c-0.5-0.4-1.7-1.4-2.4-1.7c3.5-3,6.6-7.8,8.3-12.8l2.8,0.7c-0.5,1.3-1.1,2.6-1.7,3.9h22.1v2.7H89.1v5.6h10.8v2.6H89.1V45h13.4V47.7
		z M86.3,45v-7.3H78V45H86.3z"/>
</g>
</svg>
