<?xml version="1.0" encoding="utf-8"?>
<!-- Generator: Adobe Illustrator 23.0.3, SVG Export Plug-In . SVG Version: 6.00 Build 0)  -->
<svg version="1.1" id="Layer_1" xmlns="http://www.w3.org/2000/svg" xmlns:xlink="http://www.w3.org/1999/xlink" x="0px" y="0px"
	 viewBox="0 0 127.3 105.1" style="enable-background:new 0 0 127.3 105.1;" xml:space="preserve">
<style type="text/css">
	.st0{enable-background:new    ;}
	.st1{fill:#00A680;}
</style>
<title>Asset 1</title>
<g class="st0">
	<path class="st1" d="M23.7,50.2l1.7-2.2c1.6,1.6,3.5,3,6.7,3c3.2,0,5.8-2.4,5.8-6.4c0-3.9-2.2-6.2-5.6-6.2c-1.8,0-3,0.6-4.5,1.6
		l-1.8-1.1l0.9-12.7h13.2v2.9H29.6L29,36.9c1.2-0.7,2.4-1.1,4-1.1c4.5,0,8.2,2.7,8.2,8.6c0,6-4.3,9.3-8.9,9.3
		C28.1,53.8,25.5,52,23.7,50.2z"/>
	<path class="st1" d="M46.5,39.7c0-9.4,3.3-14,8.5-14c5.1,0,8.4,4.6,8.4,14c0,9.4-3.3,14.1-8.4,14.1C49.8,53.8,46.5,49.1,46.5,39.7z
		 M60.1,39.7c0-7.9-2.1-11.2-5.1-11.2c-3.1,0-5.2,3.3-5.2,11.2c0,8,2.1,11.4,5.2,11.4C58,51.1,60.1,47.6,60.1,39.7z"/>
	<path class="st1" d="M72.8,36.5v19.6h-2.7V23.9h13.4v12.6H72.8z M72.8,26.1v3.1h8v-3.1H72.8z M80.8,34.4v-3.3h-8v3.3H80.8z
		 M80.7,52.7v1.9h-2.5V39.3H92v13.4H80.7z M80.7,41.4v3.4h8.7v-3.4H80.7z M89.4,50.5v-3.6h-8.7v3.6H89.4z M100.5,52.5
		c0,1.7-0.4,2.7-1.6,3.1c-1.2,0.4-3.1,0.5-6.2,0.5c-0.1-0.8-0.6-2.1-1-2.8c2.3,0.1,4.5,0.1,5.2,0c0.6,0,0.9-0.2,0.9-0.9V36.6H86.8
		V23.9h13.7V52.5z M89.4,26.1v3.1h8.3v-3.1H89.4z M97.7,34.5v-3.3h-8.3v3.3H97.7z"/>
</g>
<path class="st1" d="M119.8,5c0,0-5.2,9.3-2,15.6C124.6,15.6,119.8,5,119.8,5z"/>
<path class="st1" d="M104.4,11.9c0,0,4.2,9.9,11.9,8.4C114.1,14.2,104.4,11.9,104.4,11.9z"/>
<path class="st1" d="M107.8,21.5c0,0,2.7,10.5,10.5,10.1C117,25.2,107.8,21.5,107.8,21.5z"/>
<path class="st1" d="M110.7,32.3c0,0-0.3,10.8,7.3,12.7C118.5,38.4,110.7,32.3,110.7,32.3z"/>
<path class="st1" d="M113.9,60.4c3-6.6-2.8-15.9-2.8-15.9S106.7,55.6,113.9,60.4z"/>
<path class="st1" d="M107,56.6c0,0-6.5,10.9,0.3,17.2C111.5,67.3,107,56.6,107,56.6z"/>
<path class="st1" d="M101.1,69.1c0,0-9.2,8.7-4.4,16.6C102.5,80.7,101.1,69.1,101.1,69.1z"/>
<path class="st1" d="M93.8,77.6c0,0-11.3,5.9-8.8,14.8C92,89.1,93.8,77.6,93.8,77.6z"/>
<path class="st1" d="M83.3,83.6c0,0-12,3.1-11.5,12.1C79.1,94.1,83.3,83.6,83.3,83.6z"/>
<path class="st1" d="M120.2,34.1c7.8-3.3,5.6-14.7,5.6-14.7S118.5,27.2,120.2,34.1z"/>
<path class="st1" d="M119.7,47.7c8.2-2.1,7.6-13.8,7.6-13.8S119.1,40.7,119.7,47.7z"/>
<path class="st1" d="M115,62.5c9,0.3,12-11.8,12-11.8S116.4,55.1,115,62.5z"/>
<path class="st1" d="M108.1,76.1c8.4,2.4,14.1-8.2,14.1-8.2S111.2,69.5,108.1,76.1z"/>
<path class="st1" d="M96.8,87.9c7,5.2,16.1-2.8,16.1-2.8S102,82.8,96.8,87.9z"/>
<path class="st1" d="M84.1,94.5c4.7,7.4,16,3.2,16,3.2S90.8,91.7,84.1,94.5z"/>
<path class="st1" d="M70.8,97.1c2.1,8.5,14.2,8,14.2,8S78.1,96.4,70.8,97.1z"/>
<path class="st1" d="M76.2,96c5-0.8,9.9-2.4,14.4-4.8c4.5-2.4,8.6-5.6,12.1-9.3c3.4-3.8,6.3-8,8.6-12.6c4.7-9,7.4-19,8-29.1
	c0.3-5.1-0.1-10.1-1.2-15.1c-0.9-4.5-2.4-8.8-4.4-12.9l0,0c2.6-7.1-6.1-12.2-6.1-12.2s-1.4,8.9,6,12.1c2,4.1,3.4,8.5,4.3,13
	c0.9,4.9,1.2,10,0.9,15c-0.7,10.1-3.5,19.9-8.3,28.9C106,77.8,99,85.6,90.1,90.3c-4.4,2.4-9.2,4.1-14.1,5c-4,0.8-8.1,1.2-12.2,1.1
	c-0.6,0-1.2,0-1.9-0.1c-3.6-0.1-7.1-0.5-10.7-1.1c-4.9-0.9-9.7-2.6-14.1-5C28.4,85.6,21.4,77.8,16.8,69c-4.7-8.9-7.6-18.7-8.2-28.8
	c-0.3-5,0-10.1,0.9-15c0.8-4.5,2.3-8.9,4.3-13c7.4-3.3,6-12.1,6-12.1S11,5.2,13.6,12.2l0,0c-2,4.1-3.5,8.4-4.4,12.9
	c-1,5-1.4,10.1-1.1,15.1c0.6,10.2,3.3,20.1,8,29.1c2.3,4.6,5.2,8.8,8.6,12.6c3.5,3.8,7.6,6.9,12.1,9.3c4.5,2.3,9.4,3.9,14.5,4.8
	c4.2,0.6,8.5,1,12.8,1C68,97,72.1,96.7,76.2,96z"/>
<path class="st1" d="M9.6,20.6c3.2-6.3-2-15.6-2-15.6S2.7,15.6,9.6,20.6z"/>
<path class="st1" d="M11,20.3c7.7,1.5,11.9-8.4,11.9-8.4S13.3,14.2,11,20.3z"/>
<path class="st1" d="M9,31.6c7.9,0.4,10.6-10.1,10.6-10.1S10.4,25.2,9,31.6z"/>
<path class="st1" d="M16.7,32.3c0,0-7.8,6.1-7.3,12.7C17,43.1,16.7,32.3,16.7,32.3z"/>
<path class="st1" d="M16.3,44.5c0,0-5.8,9.3-2.8,15.9C20.6,55.6,16.3,44.5,16.3,44.5z"/>
<path class="st1" d="M20.4,56.6c0,0-4.5,10.7-0.3,17.2C26.8,67.5,20.4,56.6,20.4,56.6z"/>
<path class="st1" d="M30.7,85.7c4.8-7.9-4.5-16.6-4.5-16.6S24.9,80.7,30.7,85.7z"/>
<path class="st1" d="M42.3,92.3c2.5-8.9-8.8-14.8-8.8-14.8S35.3,89.1,42.3,92.3z"/>
<path class="st1" d="M55.6,95.6c0.4-9-11.5-12.1-11.5-12.1S48.3,94.1,55.6,95.6z"/>
<path class="st1" d="M7.2,34.1c1.6-6.9-5.6-14.7-5.6-14.7S-0.6,30.9,7.2,34.1z"/>
<path class="st1" d="M7.6,47.7C8.3,40.7,0,33.9,0,33.9S-0.6,45.6,7.6,47.7z"/>
<path class="st1" d="M12.4,62.5c-1.4-7.4-12-11.8-12-11.8S3.3,62.8,12.4,62.5z"/>
<path class="st1" d="M19.2,76.1c-3.1-6.6-14.1-8.2-14.1-8.2S10.8,78.6,19.2,76.1z"/>
<path class="st1" d="M14.5,85.1c0,0,9.1,8,16.1,2.8C25.3,82.8,14.5,85.1,14.5,85.1z"/>
<path class="st1" d="M27.2,97.7c0,0,11.3,4.2,16-3.2C36.5,91.7,27.2,97.7,27.2,97.7z"/>
<path class="st1" d="M42.3,105.1c0,0,12.1,0.5,14.2-8C49.3,96.4,42.3,105.1,42.3,105.1z"/>
</svg>
