<svg xmlns="http://www.w3.org/2000/svg" viewBox="0 0 213.26 69.44"><defs><style>.a,.b{fill:#fff;}.a{fill-rule:evenodd;}</style></defs><title>Asset 1</title><path class="a" d="M78.32,13.15a21.74,21.74,0,0,0-6.95-4.5A23.65,23.65,0,0,0,54.09,8.6a21.76,21.76,0,0,0-7,4.47,20.72,20.72,0,0,0-6.38,15,19.37,19.37,0,0,0,1.7,8.05,20.79,20.79,0,0,0,4.66,6.53A22.12,22.12,0,0,0,54,47.06a22.67,22.67,0,0,0,8.58,1.63,23,23,0,0,0,8.6-1.58,22.14,22.14,0,0,0,7-4.36,20.46,20.46,0,0,0,4.69-6.51,19,19,0,0,0,1.74-8A20.72,20.72,0,0,0,83,19.86,21,21,0,0,0,78.32,13.15ZM75.93,35.29A14.69,14.69,0,0,1,73,40.5a12.51,12.51,0,0,1-4.48,3.27,16,16,0,0,1-11.87,0,12.18,12.18,0,0,1-4.46-3.29,15.11,15.11,0,0,1-2.84-5.23,22.83,22.83,0,0,1-1-6.95,25.06,25.06,0,0,1,1-7.31,16.36,16.36,0,0,1,2.87-5.51A12.55,12.55,0,0,1,56.78,12a15.07,15.07,0,0,1,11.88,0,12.26,12.26,0,0,1,4.46,3.49A16.19,16.19,0,0,1,76,21a24.76,24.76,0,0,1,1,7.31A22.8,22.8,0,0,1,75.93,35.29Z"/><path class="a" d="M55.86,3.17l13.63,0A1.58,1.58,0,1,0,69.5,0L55.87,0a1.59,1.59,0,0,0,0,3.17Z"/><path class="a" d="M166.39,19.69A20.92,20.92,0,0,0,161.75,13a22,22,0,0,0-6.95-4.48,23.66,23.66,0,0,0-17.26,0A21.75,21.75,0,0,0,130.59,13,20.92,20.92,0,0,0,126,19.69,20.69,20.69,0,0,0,124.26,28a19.14,19.14,0,0,0,1.72,8,20.59,20.59,0,0,0,4.66,6.51,22.23,22.23,0,0,0,7,4.37,23.67,23.67,0,0,0,17.16,0,22.07,22.07,0,0,0,6.94-4.37,20.47,20.47,0,0,0,4.67-6.51,19.18,19.18,0,0,0,1.72-8A20.69,20.69,0,0,0,166.39,19.69Zm-7,15.43a14.79,14.79,0,0,1-2.87,5.22,12.65,12.65,0,0,1-4.47,3.28,14.63,14.63,0,0,1-5.91,1.14,14.84,14.84,0,0,1-5.94-1.14,12.27,12.27,0,0,1-4.47-3.28,15.06,15.06,0,0,1-2.84-5.22,22.4,22.4,0,0,1-1-6.94,24.68,24.68,0,0,1,1-7.3,16.16,16.16,0,0,1,2.85-5.51,12.46,12.46,0,0,1,4.47-3.48,15.14,15.14,0,0,1,11.86,0,12.46,12.46,0,0,1,4.47,3.48,16.52,16.52,0,0,1,2.85,5.51,24.68,24.68,0,0,1,1,7.3A22.4,22.4,0,0,1,159.42,35.12Z"/><path class="a" d="M139.36,3.31H153a1.59,1.59,0,0,0,0-3.17H139.36a1.59,1.59,0,0,0,0,3.17Z"/><path class="a" d="M126.4,6.87l-.06,0H113.8l-.07,0a1.06,1.06,0,0,0-1,1v.14a1.16,1.16,0,0,0,1.16,1.07h.32c.63,0,1.52.32,1.52,1.29a4,4,0,0,1-.84,2.13l-10.46,12.9L94,12.56a3.93,3.93,0,0,1-.85-2.13c0-1,1.07-1.27,1.69-1.31h.28l.07,0a1,1,0,0,0,.93-1V7.92a1.07,1.07,0,0,0-.79-1l0,0h0l-.12,0H82.61l-.1,0a1.07,1.07,0,0,0-1,1.06v.38c0,.56.39.9,1,1h0a6.94,6.94,0,0,1,2.73,2L100.53,30l-.07,12c-.26,3.22-2.47,3.79-2.56,3.81a.49.49,0,0,0-.2.11A1.45,1.45,0,0,0,97,47.11a1.46,1.46,0,0,0,1.46,1.46h12.09A1.46,1.46,0,0,0,112,47.11a1.44,1.44,0,0,0-.78-1.27l0,0a1.4,1.4,0,0,0-.34-.13c-.57-.22-2.13-1.06-2.36-3.74l-.06-12,15.3-18.65a6.86,6.86,0,0,1,2.73-2h0a1.06,1.06,0,0,0,.88-1V7.92A1,1,0,0,0,126.4,6.87Z"/><path class="a" d="M41.82,14.1V14L41.47,7.8a1,1,0,0,0-1-.89H1.34a1,1,0,0,0-1,.89L0,14v.09H0v0H0A2,2,0,0,0,2.1,16h.17c1.12,0,1.74-.81,2.09-1.82h0l0-.1a3.78,3.78,0,0,1,1.18-1.64,5.11,5.11,0,0,1,2-.87,51.31,51.31,0,0,1,5.68-.29c1.14,0,2.06,0,2.74.07a10.07,10.07,0,0,1,1,.11L17,41.84a4.11,4.11,0,0,1-2.54,3.83,1.91,1.91,0,0,0-.36.13l0,0a1.47,1.47,0,0,0-.84,1.31,1.54,1.54,0,0,0,1.57,1.49H27a1.53,1.53,0,0,0,1.57-1.49,1.48,1.48,0,0,0-.83-1.31l0,0a2.32,2.32,0,0,0-.37-.13,4.12,4.12,0,0,1-2.53-3.83l-.07-30.41a10.4,10.4,0,0,1,1-.11c.68-.05,1.6-.07,2.75-.07a51.45,51.45,0,0,1,5.68.29,5.07,5.07,0,0,1,2,.87,3.8,3.8,0,0,1,1.19,1.64l0,.1h0c.35,1,1,1.82,2.08,1.82h.18a2,2,0,0,0,2.09-1.82h0V14.1Z"/><path class="b" d="M173.79,29a1,1,0,0,1,0-2h38.49a1,1,0,0,1,0,2Z"/><path class="b" d="M181,11c0,3.55-.35,5.92-1.15,7.74.6.49,1.17,1,1.69,1.49l0,.15-1.47,1.5h-.17c-.4-.44-.78-.86-1.18-1.24a12,12,0,0,1-2.53,2.26A.35.35,0,0,1,176,23a.25.25,0,0,1-.21-.13l-1.22-1.47a9.18,9.18,0,0,0,2.54-2.14l-.44-.32-.11.38-.17.07-1.71-.64-.06-.15a54.75,54.75,0,0,0,1.3-5.66l-1.07,0-.12-.12V11l.12-.11,1.39,0c.17-1.05.3-2.14.43-3.28l.12-.11,2,.28.11.12-.45,3h.49l2,0Zm-3,1.89c-.23,1.36-.53,2.69-.87,4,.31.17.59.35.87.53a14.32,14.32,0,0,0,.82-4.56Zm9,1.56h1.31l2.19,0,.11.11v2l-.11.12-2.19-.06h-1.31V18l.05,3c0,1.78-.67,2.21-3.41,2.21-.33,0-.37,0-.43-.2l-.92-2.21a16.11,16.11,0,0,0,1.87,0c.35,0,.45-.14.45-.54V16.52H183.4l-2.19.06-.11-.12v-2l.11-.11,2.19,0h1.27V11.76l.12-.12h.73a11.55,11.55,0,0,0,1.48-1.2h-3.35l-2.35.05-.12-.12V8.47l.12-.12,2.35.05h4.1l1.53-.05,1,1.19a.48.48,0,0,1,.15.33.3.3,0,0,1-.08.2,27.51,27.51,0,0,1-3.31,3Z"/><path class="b" d="M201.84,12.66a.65.65,0,0,1,.07.54c-.65,4.38-2.18,7-4.43,8.92a.3.3,0,0,1-.22.1.55.55,0,0,1-.3-.11l-1.65-1.39a10,10,0,0,0,4-6.77h-1.46l-1.87,0-.1-.13V11.91l.1-.1,1.87,0h2.12l1,0Zm8.71-.8A34.22,34.22,0,0,1,206.64,15a16.26,16.26,0,0,0,5,5.28l-1.89,1.89a.31.31,0,0,1-.21.11.25.25,0,0,1-.17-.06,18.53,18.53,0,0,1-4.51-6.07V17l.2,3.89c0,1.76-.2,2.52-3.47,2.52-.22,0-.29,0-.39-.23l-1-2.17a14.27,14.27,0,0,0,1.7,0c.42,0,.6-.13.6-.53V7.55l.14-.12h2.19l.11.15v3.65c.22.65.45,1.3.74,1.94a30.11,30.11,0,0,0,2.69-3.06l.18,0,2,1.6Z"/><path class="b" d="M174.57,38.34l-.12-.12V36.31l.12-.12,2.28,0V32.81l.11-.13h2.25l.11.11v3.45h1.87V32.48l.11-.12h2.08l.12.12v3.76h2V32.49l.11-.11h2.15l.12.11v3.75l2.44-.05.11.12v1.91l-.11.12-2.44-.05v2.62l0,2.15-.12.11-2.1-.05h-2.36l-2.08.05-.11-.11.05-2.07v-2.7h-1.87v6.65h7.41l2.73,0,.11.11v1.93l-.11.12-2.73,0h-7.41v1h-2.56l.09-5.78V38.3Zm8.93-.05v2.8h2v-2.8Z"/><path class="b" d="M206.36,38a16.49,16.49,0,0,0,.6,2.19,13.82,13.82,0,0,0,2-1.84h.18l1.54,1.43v.17a23.32,23.32,0,0,1-2.87,2,10.25,10.25,0,0,0,3.63,3.54l-1.64,1.58c-.1.1-.16.13-.24.13a.41.41,0,0,1-.25-.11,11.19,11.19,0,0,1-3.58-4.43c-.14-.28-.22-.46-.28-.61a8.68,8.68,0,0,1,.26,2.08c0,3-.79,3.76-3.37,3.76-.33,0-.38,0-.48-.28L201.05,46a18.54,18.54,0,0,1-3.83,1.52l-.22,0a.28.28,0,0,1-.23-.13l-1.1-1.65a18.25,18.25,0,0,0,7.52-3.58,2.75,2.75,0,0,0-.18-.46,19.74,19.74,0,0,1-5.58,2.8.53.53,0,0,1-.21,0,.25.25,0,0,1-.23-.13l-1.14-1.63A18.15,18.15,0,0,0,202,40.15a2.67,2.67,0,0,0-.31-.35,22.74,22.74,0,0,1-4.38,1.8.45.45,0,0,1-.21,0,.28.28,0,0,1-.25-.15l-1.09-1.57a22,22,0,0,0,5.55-2h-.3l-2.16.05-.12-.1v-1.7l.1-.1,2.18.05h4.83l2.08-.05.1.09v1.73L208,38Zm-4.24-5.74.12-.12h2.21l.11.12v1.27h3.35l2.73-.05.13.11-.05,1.26v.44l.08,2.12h-2.37v-2h-10v2H196.1l.08-2.12V35l-.05-1.41.12-.11,2.74.05h3.13Zm.55,13.61c.46,0,.77-.21.82-1.5a15.1,15.1,0,0,1-2.33,1.53A13.7,13.7,0,0,0,202.67,45.86Zm.64-7A8.69,8.69,0,0,1,205,41a21.73,21.73,0,0,1-.71-3A9.11,9.11,0,0,1,203.31,38.81Z"/><path class="b" d="M5.35,59.89c.54,0,1,.4,1.5,1.2l3,6.84c.18.46-.09.86-.8,1.18s-1.18.19-1.37-.25l-.42-1H3.48l-.41,1q-.28.66-1.35.21C1,68.77.7,68.41.87,68l3.05-6.9C4.36,60.29,4.83,59.89,5.35,59.89Zm-1,5.87H6.38l-1-2.52Z"/><path class="b" d="M20.36,69.37c-.81,0-1.22-.25-1.22-.74v-2.7H15.91v2.7c0,.5-.41.75-1.24.75s-1.23-.26-1.23-.75v-8c0-.53.42-.79,1.23-.79s1.24.27,1.24.79v2.85h3.23V60.62c0-.53.41-.79,1.22-.79s1.24.27,1.24.79v8C21.6,69.12,21.19,69.37,20.36,69.37Z"/><path class="b" d="M23.07,68.8a1.48,1.48,0,0,1-.46-1.24V61.7A1.81,1.81,0,0,1,23,60.38,1.78,1.78,0,0,1,24.39,60h5.77c.44,0,.66.35.66,1.06s-.22,1.06-.66,1.06H25.07v1.45h4.37c.42,0,.63.35.63,1.06s-.21,1.06-.63,1.06H25.07v1.41h5.36c.42,0,.62.35.62,1.06s-.2,1.07-.62,1.07H24.38A2.08,2.08,0,0,1,23.07,68.8Z"/><path class="b" d="M36.09,59.89c.54,0,1,.4,1.49,1.2l3,6.84c.18.46-.09.86-.8,1.18s-1.18.19-1.37-.25l-.42-1H34.22l-.41,1q-.29.66-1.35.21c-.74-.32-1-.68-.85-1.1l3-6.9C35.1,60.29,35.57,59.89,36.09,59.89Zm-1,5.87h2.06l-1-2.52Z"/><path class="b" d="M42.72,59.82c.82,0,1.24.26,1.24.75V66.7H49q.75,0,.75,1.23c0,.82-.26,1.23-.75,1.23H43.39A2,2,0,0,1,42,68.73a1.83,1.83,0,0,1-.51-1.44V60.57Q41.51,59.82,42.72,59.82Z"/><path class="b" d="M57.14,61.26c0,.83-.25,1.24-.76,1.24H53.77v6.2c0,.5-.42.74-1.24.74s-1.23-.24-1.23-.74V62.5H48.49c-.51,0-.76-.41-.76-1.24S48,60,48.49,60h7.89C56.89,60,57.14,60.45,57.14,61.26Z"/><path class="b" d="M65.06,69.37c-.82,0-1.23-.25-1.23-.74v-2.7H60.6v2.7c0,.5-.41.75-1.24.75s-1.22-.26-1.22-.75v-8c0-.53.41-.79,1.22-.79s1.24.27,1.24.79v2.85h3.23V60.62c0-.53.42-.79,1.23-.79s1.23.27,1.23.79v8C66.29,69.12,65.88,69.37,65.06,69.37Z"/><path class="b" d="M68.1,60.19q.91-.73,1.53,0L72,63.12l2.29-2.89c.43-.5,1-.5,1.59,0s.77,1,.4,1.45l-3,3.76v3.12c0,.51-.42.76-1.24.76s-1.23-.25-1.23-.76V65.45l-3.11-3.79Q67.14,60.94,68.1,60.19Z"/><path class="b" d="M86.59,60.41a4.8,4.8,0,0,1,1.78,1.8c.25.49.09.95-.48,1.37a1.61,1.61,0,0,1-.83.19.77.77,0,0,1-.59-.31,2.65,2.65,0,0,0-1-1.05,2.87,2.87,0,0,0-1.3-.25,2.25,2.25,0,0,0-1.67.63,2.76,2.76,0,0,0,0,3.58,2.3,2.3,0,0,0,1.67.62,2.65,2.65,0,0,0,1.37-.36,3.34,3.34,0,0,0,1-1.38.82.82,0,0,1,.53-.46,1.29,1.29,0,0,1,.84.12c.66.35.9.76.73,1.23a5.61,5.61,0,0,1-1.71,2.38,4.43,4.43,0,0,1-2.71.74,4.82,4.82,0,0,1-3.4-1.15,4.6,4.6,0,0,1-1.39-3.53,4.4,4.4,0,0,1,4.79-4.69A5.07,5.07,0,0,1,86.59,60.41Z"/><path class="b" d="M96.19,69.37c-.81,0-1.22-.25-1.22-.74v-2.7H91.74v2.7c0,.5-.41.75-1.24.75s-1.23-.26-1.23-.75v-8c0-.53.42-.79,1.23-.79s1.24.27,1.24.79v2.85H95V60.62c0-.53.41-.79,1.22-.79s1.24.27,1.24.79v8C97.43,69.12,97,69.37,96.19,69.37Z"/><path class="b" d="M99.42,61.12a4.53,4.53,0,0,1,3.43-1.25,4.4,4.4,0,0,1,3.4,1.2,5,5,0,0,1,1.24,3.55,4.22,4.22,0,0,1-4.64,4.69,4.59,4.59,0,0,1-3.39-1.17,5.52,5.52,0,0,1,0-7Zm1.23,3.5a2.39,2.39,0,0,0,.6,1.69,2.06,2.06,0,0,0,1.6.63,2,2,0,0,0,1.64-.64,2.46,2.46,0,0,0,.54-1.68,2.68,2.68,0,0,0-.52-1.73,2.4,2.4,0,0,0-3.26,0A2.56,2.56,0,0,0,100.65,64.62Z"/><path class="b" d="M110.55,60.7v7.89c0,.5-.41.76-1.24.76s-1.23-.26-1.23-.76V60.7c0-.52.42-.79,1.23-.79S110.55,60.19,110.55,60.7Z"/><path class="b" d="M118.42,60.41a4.87,4.87,0,0,1,1.78,1.8c.25.49.09.95-.48,1.37a1.62,1.62,0,0,1-.84.19.76.76,0,0,1-.58-.31,2.65,2.65,0,0,0-1-1.05,2.87,2.87,0,0,0-1.3-.25,2.29,2.29,0,0,0-1.68.63,2.79,2.79,0,0,0,0,3.58A2.34,2.34,0,0,0,116,67a2.68,2.68,0,0,0,1.37-.36,3.34,3.34,0,0,0,1-1.38.82.82,0,0,1,.53-.46,1.3,1.3,0,0,1,.84.12c.66.35.9.76.73,1.23a5.79,5.79,0,0,1-1.71,2.38,4.43,4.43,0,0,1-2.71.74,4.82,4.82,0,0,1-3.4-1.15,4.6,4.6,0,0,1-1.39-3.53A4.4,4.4,0,0,1,116,59.89,5.07,5.07,0,0,1,118.42,60.41Z"/><path class="b" d="M121.67,68.8a1.51,1.51,0,0,1-.46-1.24V61.7a1.81,1.81,0,0,1,.44-1.32A1.78,1.78,0,0,1,123,60h5.76c.45,0,.67.35.67,1.06s-.22,1.06-.67,1.06h-5.08v1.45h4.37c.42,0,.63.35.63,1.06s-.21,1.06-.63,1.06h-4.37v1.41H129c.41,0,.62.35.62,1.06s-.21,1.07-.62,1.07H123A2.1,2.1,0,0,1,121.67,68.8Z"/><path class="b" d="M134.09,60.39a2,2,0,0,1,1.39-.4h5.76c.45,0,.68.37.68,1.08s-.24,1.09-.68,1.09h-5.1V64h4.2c.52,0,.77.37.77,1.08s-.25,1.09-.77,1.09h-4.2V68.5c0,.53-.41.8-1.24.8s-1.23-.27-1.23-.8V61.76A2,2,0,0,1,134.09,60.39Z"/><path class="b" d="M143.43,61.12a4.54,4.54,0,0,1,3.44-1.25,4.37,4.37,0,0,1,3.39,1.2,5,5,0,0,1,1.24,3.55,4.22,4.22,0,0,1-4.63,4.69,4.6,4.6,0,0,1-3.4-1.17,4.77,4.77,0,0,1-1.28-3.52A4.84,4.84,0,0,1,143.43,61.12Zm1.23,3.5a2.39,2.39,0,0,0,.6,1.69,2.06,2.06,0,0,0,1.61.63,2,2,0,0,0,1.63-.64,2.46,2.46,0,0,0,.54-1.68,2.68,2.68,0,0,0-.52-1.73,2,2,0,0,0-1.65-.66,2.08,2.08,0,0,0-1.61.62A2.56,2.56,0,0,0,144.66,64.62Z"/><path class="b" d="M152.6,60.34a1.8,1.8,0,0,1,1.28-.43h3.67a2.68,2.68,0,0,1,3.15,3,3.28,3.28,0,0,1-.71,2.29,1.85,1.85,0,0,1-.48.35l1.49,2.1c.28.38.12.82-.47,1.3s-1.19.57-1.53.12L156.79,66h-2.18v2.49c0,.54-.41.8-1.24.8s-1.23-.26-1.23-.8V61.61A1.78,1.78,0,0,1,152.6,60.34Zm5,3.57c.46,0,.69-.33.69-1S158,62,157.55,62h-2.94v1.92Z"/><path class="b" d="M165.37,60.39a2,2,0,0,1,1.4-.4h5.75c.45,0,.68.37.68,1.08s-.24,1.09-.68,1.09h-5.1V64h4.2q.78,0,.78,1.08c0,.73-.26,1.09-.78,1.09h-4.2V68.5c0,.53-.41.8-1.24.8S165,69,165,68.5V61.76A2,2,0,0,1,165.37,60.39Z"/><path class="b" d="M177.51,59.89c.53,0,1,.4,1.49,1.2l3,6.84c.17.46-.09.86-.8,1.18s-1.18.19-1.38-.25l-.42-1h-3.76l-.42,1c-.18.44-.63.51-1.34.21s-1-.68-.85-1.1l3-6.9Q176.73,59.89,177.51,59.89Zm-1,5.87h2.07l-1-2.52Z"/><path class="b" d="M184,59.93a1.79,1.79,0,0,1,1.79,1c.18.39.34.75.47,1.09l.91,3.41.91-3.33.44-1a1.8,1.8,0,0,1,1.81-1.17,1.08,1.08,0,0,1,1.23,1.22v7.53c0,.48-.41.73-1.23.73s-1.23-.25-1.23-.73V66l-.58,2q-.54,1.23-1.35,1.23c-.56,0-1-.42-1.31-1.23L185.28,66v2.72c0,.48-.41.73-1.24.73s-1.22-.25-1.22-.73V61.15A1.08,1.08,0,0,1,184,59.93Z"/><path class="b" d="M195.74,60.7v7.89c0,.5-.41.76-1.23.76s-1.23-.26-1.23-.76V60.7c0-.52.42-.79,1.23-.79S195.74,60.19,195.74,60.7Z"/><path class="b" d="M198.3,59.82c.82,0,1.24.26,1.24.75V66.7h5.07q.75,0,.75,1.23t-.75,1.23H199a2,2,0,0,1-1.39-.43,1.83,1.83,0,0,1-.51-1.44V60.57Q197.09,59.82,198.3,59.82Z"/><path class="b" d="M204.18,60.19c.6-.49,1.11-.49,1.52,0l2.36,2.93,2.29-2.89c.43-.5,1-.5,1.59,0s.77,1,.4,1.45l-3,3.76v3.12c0,.51-.41.76-1.24.76s-1.23-.25-1.23-.76V65.45l-3.1-3.79Q203.22,60.94,204.18,60.19Z"/></svg>