<svg xmlns="http://www.w3.org/2000/svg" viewBox="0 0 153.59 79.11"><defs><style>.a{fill:#009b75;}.b{fill:#fff;fill-rule:evenodd;}</style></defs><title>Asset 3</title><rect class="a" width="153.59" height="79.11"/><path class="b" d="M73.36,32.83a13.09,13.09,0,0,0-4.17-2.7,14.17,14.17,0,0,0-10.38,0,13.19,13.19,0,0,0-4.19,2.68,12.43,12.43,0,0,0-3.83,9,11.63,11.63,0,0,0,1,4.83,12.44,12.44,0,0,0,2.8,3.92,13.24,13.24,0,0,0,4.17,2.64,14.25,14.25,0,0,0,10.31,0,13.4,13.4,0,0,0,4.19-2.62,12.32,12.32,0,0,0,2.81-3.91,11.57,11.57,0,0,0,1-4.82,12.5,12.5,0,0,0-1-5A12.74,12.74,0,0,0,73.36,32.83Zm-1.44,13.3a8.87,8.87,0,0,1-1.73,3.13,7.57,7.57,0,0,1-2.69,2,8.63,8.63,0,0,1-3.56.68,8.85,8.85,0,0,1-3.57-.7,7.3,7.3,0,0,1-2.68-2A8.91,8.91,0,0,1,56,46.08a13.55,13.55,0,0,1-.6-4.17A14.59,14.59,0,0,1,56,37.52a9.8,9.8,0,0,1,1.72-3.31,7.48,7.48,0,0,1,2.69-2.08,9.09,9.09,0,0,1,7.14,0,7.5,7.5,0,0,1,2.68,2.1,9.77,9.77,0,0,1,1.7,3.31,15,15,0,0,1,.6,4.4A13.58,13.58,0,0,1,71.92,46.13Z"/><path class="b" d="M59.87,26.84l8.19,0a1,1,0,0,0,1-.95.94.94,0,0,0-1-.95l-8.19,0a1,1,0,0,0,0,1.91Z"/><path class="b" d="M126.25,36.76a12.59,12.59,0,0,0-2.78-4,13.17,13.17,0,0,0-4.18-2.69,14.18,14.18,0,0,0-10.36,0,13.17,13.17,0,0,0-4.18,2.69,12.61,12.61,0,0,0-2.79,4,12.46,12.46,0,0,0-1,5,11.59,11.59,0,0,0,1,4.82,12.44,12.44,0,0,0,2.8,3.91A13.37,13.37,0,0,0,109,53.13a14.29,14.29,0,0,0,10.3,0,13.33,13.33,0,0,0,4.17-2.63,12.47,12.47,0,0,0,2.81-3.91,11.59,11.59,0,0,0,1-4.82A12.3,12.3,0,0,0,126.25,36.76ZM122.07,46a9,9,0,0,1-1.72,3.13,7.72,7.72,0,0,1-2.69,2,8.72,8.72,0,0,1-3.55.69,8.85,8.85,0,0,1-3.57-.69,7.41,7.41,0,0,1-2.68-2A9,9,0,0,1,106.15,46a13.58,13.58,0,0,1-.61-4.17,14.93,14.93,0,0,1,.61-4.39,10,10,0,0,1,1.71-3.31,7.4,7.4,0,0,1,2.69-2.08,9,9,0,0,1,7.12,0,7.48,7.48,0,0,1,2.69,2.08,10,10,0,0,1,1.71,3.31,14.94,14.94,0,0,1,.6,4.39A13.59,13.59,0,0,1,122.07,46Z"/><path class="b" d="M110,26.92h8.18a.95.95,0,1,0,0-1.9H110a.95.95,0,0,0,0,1.9Z"/><path class="b" d="M102.24,29.06H94.62a.63.63,0,0,0-.57.63v.08a.71.71,0,0,0,.7.65h.19c.38,0,.91.19.91.78a2.36,2.36,0,0,1-.5,1.27l-6.28,7.76-6.28-7.76a2.36,2.36,0,0,1-.51-1.27c0-.63.64-.77,1-.79h.22a.62.62,0,0,0,.55-.62v-.08a.63.63,0,0,0-.47-.61H75.87a.64.64,0,0,0-.6.64v.23c0,.33.24.53.59.62h0a4,4,0,0,1,1.64,1.18l9.19,11.2,0,7.19a2.35,2.35,0,0,1-1.54,2.29.23.23,0,0,0-.12.06.88.88,0,0,0,.44,1.63h7.27a.87.87,0,0,0,.4-1.65h0a.68.68,0,0,0-.2-.07,2.42,2.42,0,0,1-1.41-2.25l0-7.19,9.19-11.2a4,4,0,0,1,1.64-1.18h0a.64.64,0,0,0,.53-.63v-.23A.64.64,0,0,0,102.24,29.06Z"/><path class="b" d="M51.43,33.4v0l-.2-3.73a.59.59,0,0,0-.6-.54H27.12a.58.58,0,0,0-.59.54l-.2,3.73v.07h0a1.18,1.18,0,0,0,1.26,1.09h.11c.67,0,1-.48,1.25-1.09h0l0-.06a2.29,2.29,0,0,1,.71-1,3,3,0,0,1,1.22-.52,29.62,29.62,0,0,1,3.41-.18c.69,0,1.24,0,1.65,0a4.93,4.93,0,0,1,.62.07l0,18.26A2.45,2.45,0,0,1,35,52.36l-.22.08h0a.89.89,0,0,0-.5.79.92.92,0,0,0,.94.89h7.33a.93.93,0,0,0,1-.89.9.9,0,0,0-.51-.79h0l-.22-.08a2.45,2.45,0,0,1-1.52-2.3l0-18.26a4.9,4.9,0,0,1,.63-.07c.4,0,1,0,1.64,0a29.62,29.62,0,0,1,3.41.18,2.91,2.91,0,0,1,1.22.52,2.29,2.29,0,0,1,.71,1l0,.06h0c.21.61.58,1.09,1.25,1.09h.1a1.18,1.18,0,0,0,1.26-1.09h0Z"/></svg>