<svg xmlns="http://www.w3.org/2000/svg" viewBox="0 0 87.58 87.58"><defs><style>.a{fill:#00a280;}.b,.c{fill:#fff;}.b{fill-rule:evenodd;}</style></defs><title>Asset 1</title><rect class="a" width="87.58" height="87.58"/><path class="b" d="M41.2,34.8a9.9,9.9,0,0,0-3.14-2,10.67,10.67,0,0,0-7.81,0,9.79,9.79,0,0,0-3.15,2,9.39,9.39,0,0,0-2.89,6.8A8.8,8.8,0,0,0,25,45.2a9.38,9.38,0,0,0,2.11,2.95,10.13,10.13,0,0,0,3.14,2,10.38,10.38,0,0,0,3.88.73,10.2,10.2,0,0,0,7-2.68,9.19,9.19,0,0,0,2.12-2.95,8.59,8.59,0,0,0,.79-3.63A9.3,9.3,0,0,0,41.2,34.8Zm-1.08,10a6.64,6.64,0,0,1-1.3,2.36,5.64,5.64,0,0,1-2,1.48,6.74,6.74,0,0,1-2.68.51,6.66,6.66,0,0,1-2.69-.53,5.4,5.4,0,0,1-2-1.48,6.76,6.76,0,0,1-1.29-2.37,10,10,0,0,1-.44-3.14,11.31,11.31,0,0,1,.46-3.31,7.45,7.45,0,0,1,1.3-2.49,5.59,5.59,0,0,1,2-1.57,6.42,6.42,0,0,1,2.68-.54,6.31,6.31,0,0,1,2.69.56,5.64,5.64,0,0,1,2,1.58,7.42,7.42,0,0,1,1.28,2.49,11.32,11.32,0,0,1,.45,3.31A10.25,10.25,0,0,1,40.12,44.81Z"/><path class="b" d="M31.05,30.29h6.16a.72.72,0,1,0,0-1.43l-6.17,0a.72.72,0,1,0,0,1.44Z"/><path class="b" d="M81,37.76a9.58,9.58,0,0,0-2.1-3,9.85,9.85,0,0,0-3.14-2,10.67,10.67,0,0,0-7.81,0,9.85,9.85,0,0,0-3.14,2,9.58,9.58,0,0,0-2.1,3A9.27,9.27,0,0,0,62,41.53a8.61,8.61,0,0,0,.78,3.63,9.23,9.23,0,0,0,2.11,2.94,9.93,9.93,0,0,0,3.14,2,10.65,10.65,0,0,0,7.75,0,10.09,10.09,0,0,0,3.15-2A9.54,9.54,0,0,0,81,45.16a8.76,8.76,0,0,0,.77-3.63A9.27,9.27,0,0,0,81,37.76Zm-3.15,7a6.82,6.82,0,0,1-1.3,2.36,5.81,5.81,0,0,1-2,1.48,6.66,6.66,0,0,1-2.67.52,6.79,6.79,0,0,1-2.69-.52,5.52,5.52,0,0,1-2-1.48,7,7,0,0,1-1.29-2.36,10.26,10.26,0,0,1-.45-3.14,11.21,11.21,0,0,1,.45-3.3,7.48,7.48,0,0,1,1.29-2.5,5.75,5.75,0,0,1,2-1.57,6.83,6.83,0,0,1,5.37,0,5.75,5.75,0,0,1,2,1.57,7.48,7.48,0,0,1,1.29,2.5,11.21,11.21,0,0,1,.45,3.3A10.26,10.26,0,0,1,77.88,44.74Z"/><path class="b" d="M68.81,30.35H75a.72.72,0,0,0,0-1.43H68.81a.72.72,0,1,0,0,1.43Z"/><path class="b" d="M63,32H57.22a.48.48,0,0,0-.43.48v.06a.52.52,0,0,0,.52.48h.14c.29,0,.69.14.69.58a1.73,1.73,0,0,1-.38,1L53,40.37,48.3,34.53a1.8,1.8,0,0,1-.38-1c0-.47.49-.57.76-.59h.16a.48.48,0,0,0,.42-.47v-.06a.5.5,0,0,0-.35-.47H43.1a.49.49,0,0,0-.45.48v.17a.48.48,0,0,0,.43.47h0a3,3,0,0,1,1.24.89l6.92,8.43,0,5.41a1.76,1.76,0,0,1-1.16,1.73.13.13,0,0,0-.09.05.64.64,0,0,0-.33.56.67.67,0,0,0,.66.66h5.47a.67.67,0,0,0,.66-.66.65.65,0,0,0-.35-.58h0l-.15,0a1.84,1.84,0,0,1-1.07-1.7l0-5.41L61.73,34A3.1,3.1,0,0,1,63,33.09h0a.47.47,0,0,0,.4-.47v-.17A.49.49,0,0,0,63,32Z"/><path class="b" d="M24.7,35.23v0l-.15-2.81a.44.44,0,0,0-.45-.4H6.39a.45.45,0,0,0-.45.4l-.15,2.81v0h0v0h0a.9.9,0,0,0,1,.82h.08c.5,0,.78-.37.94-.82h0l0,0a1.59,1.59,0,0,1,.53-.74,2.36,2.36,0,0,1,.92-.4,23.88,23.88,0,0,1,2.57-.13c.51,0,.93,0,1.24,0a2.25,2.25,0,0,1,.47.06l0,13.74a1.88,1.88,0,0,1-1.15,1.74.44.44,0,0,0-.16.06h0a.67.67,0,0,0,.33,1.27H18a.69.69,0,0,0,.71-.67.68.68,0,0,0-.37-.6h0a.49.49,0,0,0-.17-.06A1.86,1.86,0,0,1,17,47.77L17,34a2.16,2.16,0,0,1,.47-.06c.3,0,.72,0,1.24,0a23.88,23.88,0,0,1,2.57.13,2.25,2.25,0,0,1,.91.4,1.68,1.68,0,0,1,.54.74l0,0h0a1,1,0,0,0,.94.82h.08a.88.88,0,0,0,.94-.82h0v0Z"/><path class="c" d="M7.55,55.7c.19,0,.37.14.53.43l1.07,2.44c.07.17,0,.31-.28.43s-.42.06-.49-.1l-.16-.36H6.88l-.15.37c-.07.16-.23.18-.48.08s-.37-.25-.31-.4L7,56.13C7.19,55.84,7.36,55.7,7.55,55.7Zm-.37,2.1h.74l-.37-.91Z"/><path class="c" d="M12.92,59.09c-.3,0-.44-.09-.44-.27v-1H11.32v1c0,.18-.15.27-.44.27s-.44-.09-.44-.27V56c0-.19.15-.29.44-.29s.44.1.44.29v1h1.16V56c0-.19.15-.29.44-.29s.44.1.44.29v2.86C13.36,59,13.21,59.09,12.92,59.09Z"/><path class="c" d="M13.88,58.88a.51.51,0,0,1-.16-.44v-2.1a.54.54,0,0,1,.64-.62h2.06c.16,0,.24.12.24.38s-.08.38-.24.38H14.6V57h1.56c.15,0,.23.13.23.38s-.08.38-.23.38H14.6v.51h1.92c.15,0,.22.12.22.38s-.07.38-.22.38H14.35A.75.75,0,0,1,13.88,58.88Z"/><path class="c" d="M18.54,55.7c.19,0,.37.14.54.43l1.07,2.44c.06.17,0,.31-.29.43s-.42.06-.49-.1l-.15-.36H17.87l-.14.37c-.07.16-.23.18-.49.08s-.36-.25-.3-.4L18,56.13C18.19,55.84,18.36,55.7,18.54,55.7Zm-.37,2.1h.74l-.37-.91Z"/><path class="c" d="M20.91,55.67c.3,0,.44.09.44.27v2.19h1.82c.18,0,.27.15.27.44s-.09.44-.27.44h-2a.72.72,0,0,1-.49-.15.64.64,0,0,1-.19-.52v-2.4C20.48,55.76,20.62,55.67,20.91,55.67Z"/><path class="c" d="M26.07,56.19c0,.29-.09.44-.27.44h-.94v2.22c0,.17-.14.26-.44.26S24,59,24,58.85V56.63H23c-.17,0-.26-.15-.26-.44s.09-.44.26-.44H25.8C26,55.75,26.07,55.9,26.07,56.19Z"/><path class="c" d="M28.9,59.09c-.29,0-.44-.09-.44-.27v-1H27.31v1c0,.18-.15.27-.44.27s-.44-.09-.44-.27V56c0-.19.15-.29.44-.29s.44.1.44.29v1h1.15V56c0-.19.15-.29.44-.29s.44.1.44.29v2.86C29.34,59,29.2,59.09,28.9,59.09Z"/><path class="c" d="M30,55.8c.22-.17.4-.17.55,0l.84,1.05.82-1q.22-.27.57,0c.23.19.27.36.14.52l-1.09,1.34V58.8c0,.18-.14.27-.44.27s-.44-.09-.44-.27V57.68l-1.11-1.35C29.71,56.16,29.76,56,30,55.8Z"/><path class="c" d="M36.61,55.88a1.72,1.72,0,0,1,.63.65c.09.17,0,.34-.17.49a.6.6,0,0,1-.3.07.3.3,0,0,1-.21-.12,1,1,0,0,0-.35-.37,1,1,0,0,0-.46-.09.81.81,0,0,0-.6.22.86.86,0,0,0-.24.64.83.83,0,0,0,.24.64.81.81,0,0,0,.6.23,1,1,0,0,0,.49-.13,1.34,1.34,0,0,0,.34-.49.27.27,0,0,1,.19-.17.48.48,0,0,1,.3,0c.23.13.32.27.26.44a2,2,0,0,1-.62.85,1.5,1.5,0,0,1-1,.27,1.71,1.71,0,0,1-1.22-.41,1.67,1.67,0,0,1-.5-1.27,1.64,1.64,0,0,1,.43-1.19,1.68,1.68,0,0,1,1.29-.48A1.91,1.91,0,0,1,36.61,55.88Z"/><path class="c" d="M40,59.09c-.29,0-.44-.09-.44-.27v-1H38.45v1q0,.27-.45.27c-.29,0-.44-.09-.44-.27V56c0-.19.15-.29.44-.29s.45.1.45.29v1H39.6V56c0-.19.15-.29.44-.29s.44.1.44.29v2.86C40.48,59,40.33,59.09,40,59.09Z"/><path class="c" d="M41.19,56.13a1.67,1.67,0,0,1,1.23-.44,1.58,1.58,0,0,1,1.22.43,1.82,1.82,0,0,1,.44,1.27,1.5,1.5,0,0,1-1.66,1.68,1.63,1.63,0,0,1-1.21-.42,1.7,1.7,0,0,1-.46-1.26A1.77,1.77,0,0,1,41.19,56.13Zm.44,1.26a.85.85,0,0,0,.22.6A.85.85,0,0,0,43,58a.88.88,0,0,0,.19-.6.92.92,0,0,0-.19-.62.71.71,0,0,0-.59-.24.72.72,0,0,0-.57.23A.86.86,0,0,0,41.63,57.39Z"/><path class="c" d="M45.17,56v2.82c0,.18-.14.27-.44.27s-.44-.09-.44-.27V56c0-.19.15-.29.44-.29S45.17,55.8,45.17,56Z"/><path class="c" d="M48,55.88a1.72,1.72,0,0,1,.63.65c.09.17,0,.34-.17.49a.59.59,0,0,1-.29.07A.28.28,0,0,1,48,57a1,1,0,0,0-.35-.37,1.06,1.06,0,0,0-.47-.09.81.81,0,0,0-.6.22.9.9,0,0,0-.23.64.86.86,0,0,0,.23.64.81.81,0,0,0,.6.23,1,1,0,0,0,.49-.13,1.23,1.23,0,0,0,.34-.49.29.29,0,0,1,.19-.17.47.47,0,0,1,.3,0c.24.13.32.27.26.44a2,2,0,0,1-.61.85,1.53,1.53,0,0,1-1,.27,1.69,1.69,0,0,1-1.21-.41,1.68,1.68,0,0,1,1.21-2.94A1.88,1.88,0,0,1,48,55.88Z"/><path class="c" d="M49.15,58.88a.51.51,0,0,1-.16-.44v-2.1a.54.54,0,0,1,.64-.62h2.06c.16,0,.24.12.24.38s-.08.38-.24.38H49.87V57h1.56c.15,0,.23.13.23.38s-.08.38-.23.38H49.87v.51h1.92c.15,0,.22.12.22.38s-.07.38-.22.38H49.62A.77.77,0,0,1,49.15,58.88Z"/><path class="c" d="M53.59,55.87a.76.76,0,0,1,.5-.14h2.06q.24,0,.24.39t-.24.39H54.33v.65h1.5c.18,0,.28.13.28.39s-.1.39-.28.39h-1.5v.83c0,.2-.15.29-.45.29s-.43-.09-.43-.29V56.36A.73.73,0,0,1,53.59,55.87Z"/><path class="c" d="M56.94,56.13a1.63,1.63,0,0,1,1.22-.44,1.56,1.56,0,0,1,1.22.43,1.82,1.82,0,0,1,.44,1.27,1.5,1.5,0,0,1-1.66,1.68A1.63,1.63,0,0,1,57,58.65a1.7,1.7,0,0,1-.46-1.26A1.74,1.74,0,0,1,56.94,56.13Zm.43,1.26a.9.9,0,0,0,.22.6.75.75,0,0,0,.57.23.72.72,0,0,0,.59-.23.88.88,0,0,0,.19-.6.92.92,0,0,0-.19-.62.71.71,0,0,0-.59-.24.72.72,0,0,0-.57.23A.91.91,0,0,0,57.37,57.39Z"/><path class="c" d="M60.22,55.86a.61.61,0,0,1,.45-.16H62a1.2,1.2,0,0,1,.88.28,1.17,1.17,0,0,1,.25.81,1.2,1.2,0,0,1-.25.82.66.66,0,0,1-.17.12l.53.75c.1.14,0,.29-.17.47s-.42.2-.55,0l-.79-1.11h-.78v.89c0,.19-.14.28-.44.28s-.44-.09-.44-.28V56.31A.58.58,0,0,1,60.22,55.86ZM62,57.13c.17,0,.25-.12.25-.34s-.08-.34-.25-.34h-1v.68Z"/><path class="c" d="M64.78,55.87a.76.76,0,0,1,.5-.14h2.06q.24,0,.24.39t-.24.39H65.52v.65H67c.18,0,.28.13.28.39s-.1.39-.28.39h-1.5v.83c0,.2-.15.29-.45.29s-.44-.09-.44-.29V56.36A.74.74,0,0,1,64.78,55.87Z"/><path class="c" d="M69.12,55.7c.19,0,.37.14.54.43l1.07,2.44c.06.17,0,.31-.29.43s-.42.06-.49-.1l-.15-.36H68.45l-.14.37c-.07.16-.23.18-.48.08s-.37-.25-.31-.4l1.09-2.46C68.77,55.84,68.94,55.7,69.12,55.7Zm-.37,2.1h.74l-.37-.91Z"/><path class="c" d="M71.46,55.71a.65.65,0,0,1,.64.37c.07.14.12.27.17.39l.32,1.22.33-1.19.16-.37a.63.63,0,0,1,.64-.42.39.39,0,0,1,.45.44v2.69c0,.17-.15.26-.45.26s-.44-.09-.44-.26v-1l-.2.71c-.13.29-.29.44-.49.44s-.35-.15-.46-.44l-.23-.73v1c0,.17-.14.26-.44.26S71,59,71,58.84V56.15A.4.4,0,0,1,71.46,55.71Z"/><path class="c" d="M75.65,56v2.82q0,.27-.45.27c-.29,0-.43-.09-.43-.27V56c0-.19.14-.29.43-.29S75.65,55.8,75.65,56Z"/><path class="c" d="M76.56,55.67c.3,0,.44.09.44.27v2.19h1.82c.18,0,.27.15.27.44s-.1.44-.27.44h-2a.76.76,0,0,1-.5-.15.67.67,0,0,1-.18-.52v-2.4C76.13,55.76,76.27,55.67,76.56,55.67Z"/><path class="c" d="M78.66,55.8c.22-.17.4-.17.55,0l.84,1.05.82-1q.24-.27.57,0c.23.19.28.36.14.52L80.5,57.68V58.8q0,.27-.45.27c-.29,0-.44-.09-.44-.27V57.68L78.5,56.33C78.38,56.16,78.43,56,78.66,55.8Z"/></svg>